<svg xmlns="http://www.w3.org/2000/svg" viewBox="0 0 1170 720" role="img" aria-label="本體電控箱單線接線圖:AC 進線經四顆電源轉為 24V/48V/5V/57.6V 匯流排,各裝置由匯流排取電並經 RS485 三段、CAN、UART、PWM 與 Ethernet 連到網關、Pi5 與交換器" class="wire" style="background:#f5f7f8"><style>
text{font-family:'Noto Sans TC','PingFang TC','Microsoft JhengHei',sans-serif;fill:#14181c}
.nt{font-size:12.5px;font-weight:700}.ns{font-size:10.5px;fill:#3c454e}.tag{font-family:monospace;font-size:9.5px;font-weight:600;fill:#6c757e}
.lbl{font-size:10.5px;fill:#3c454e}.lbl-r{font-size:10px;fill:#6c757e}.lbl-b{font-family:monospace;font-size:10.5px;font-weight:600;fill:#1d5a94}
.lbl-pwm{font-size:10.5px;font-weight:600;fill:#7a3e9d}.lbl-can{font-family:monospace;font-size:10px;font-weight:600;fill:#4b6a2a}.lbl-crit{font-size:10.5px;font-weight:700;fill:#b42318}
.qtxt{font-size:11px;font-weight:700;fill:#9a5b06}
.node{fill:#fff;stroke:#14181c;stroke-width:1.2}.node.crit{fill:#fdecea;stroke:#b42318}.node.warn{fill:#fdf3e0;stroke:#9a5b06}.node.grp{fill:#fafbfc}
.psu-v24{fill:#fdf1de;stroke:#b06a00;stroke-width:2}.psu-v48{fill:#e2f2f1;stroke:#0f6e6e;stroke-width:2}.psu-v5{fill:#e9f3ea;stroke:#2f6b34;stroke-width:2}.psu-v57{fill:#fbe9e9;stroke:#8e2020;stroke-width:2}
.qmark{fill:#fdf3e0;stroke:#9a5b06;stroke-width:1.2}
line,polyline{stroke-linecap:round;stroke-linejoin:round;fill:none}
.l-ac{stroke:#5c5470}.l-v24{stroke:#b06a00}.l-v48{stroke:#0f6e6e}.l-v5{stroke:#2f6b34}.l-v57{stroke:#8e2020}
.l-bus{stroke:#1d5a94}.l-eth{stroke:#1d5a94}.l-pwm{stroke:#7a3e9d}.l-can{stroke:#4b6a2a}.l-unk{stroke:#9a5b06}.l-sig{stroke:#6c757e}
.dot{stroke:none}.d-ac{fill:#5c5470}.d-v24{fill:#b06a00}.d-v48{fill:#0f6e6e}.d-v5{fill:#2f6b34}.d-v57{fill:#8e2020}.d-bus{fill:#1d5a94}.d-eth{fill:#1d5a94}.d-can{fill:#4b6a2a}
</style><defs><marker id="ah" viewBox="0 0 10 10" refX="9" refY="5" markerWidth="7" markerHeight="7" orient="auto-start-reverse"><path d="M0,0 L10,5 L0,10 z" fill="currentColor"/></marker></defs><text x="17" y="11" text-anchor="start" class="lbl">200 m 臍帶 AC · 單相 220V(與吊機同一組;容量 ?)</text><line x1="17" y1="18" x2="443" y2="18" class="l-ac" stroke-width="2"/><line x1="65" y1="18" x2="65" y2="28" class="l-ac" stroke-width="2"/><rect x="17" y="28" width="96" height="40" rx="2" class="node psu-v5"/><text x="26" y="43" text-anchor="start" class="nt">5V PSU</text><text x="26" y="57" text-anchor="start" class="ns">本體專用</text><line x1="175" y1="18" x2="175" y2="28" class="l-ac" stroke-width="2"/><rect x="127" y="28" width="96" height="40" rx="2" class="node psu-v57" stroke-dasharray="4 3"/><text x="136" y="43" text-anchor="start" class="nt">NPP-1700-48 ×2</text><text x="136" y="57" text-anchor="start" class="ns">57.6V 並聯 · 位置?</text><line x1="285" y1="18" x2="285" y2="28" class="l-ac" stroke-width="2"/><rect x="237" y="28" width="96" height="40" rx="2" class="node psu-v48"/><text x="246" y="43" text-anchor="start" class="nt">LRS-150-48</text><text x="246" y="57" text-anchor="start" class="ns">48V · 150 W</text><line x1="395" y1="18" x2="395" y2="28" class="l-ac" stroke-width="2"/><rect x="347" y="28" width="96" height="40" rx="2" class="node psu-v24"/><text x="356" y="43" text-anchor="start" class="nt">LRS-150-24</text><text x="356" y="57" text-anchor="start" class="ns">24V·150W 唯一</text><line x1="65" y1="68" x2="65" y2="690" class="l-v5" stroke-width="3"/><line x1="175" y1="68" x2="175" y2="450" class="l-v57" stroke-width="3"/><line x1="285" y1="68" x2="285" y2="358" class="l-v48" stroke-width="3"/><line x1="395" y1="68" x2="395" y2="588" class="l-v24" stroke-width="3"/><polyline points="65,690 880,690 880,258" class="l-v5" fill="none" stroke-width="3"/><text x="470" y="684" text-anchor="middle" class="lbl-r r-5">5V(本體專用)→ 網關 ×3</text><rect x="440" y="110" width="200" height="36" rx="2" class="node"/><text x="449" y="125" text-anchor="start" class="nt">ZDT 步進推桿 ×4</text><text x="449" y="139" text-anchor="start" class="ns">slave 5,6,7,8 · 吸盤伸縮</text><text x="632" y="140" text-anchor="end" class="tag">B1</text><rect x="440" y="156" width="200" height="36" rx="2" class="node"/><text x="449" y="171" text-anchor="start" class="nt">PQW 繼電器</text><text x="449" y="185" text-anchor="start" class="ns">slave 12 · 實體 8CH</text><text x="632" y="186" text-anchor="end" class="tag">B1</text><rect x="440" y="202" width="200" height="82" rx="2" class="node grp"/><text x="449" y="216" text-anchor="start" class="nt">PQW 乾接點負載(24V)</text><text x="449" y="231" text-anchor="start" class="ns">CH1 VT307 真空閥(4 吸盤共用)</text><text x="449" y="244" text-anchor="start" class="ns">CH2 幫浦 A  ·  CH3 幫浦 B</text><text x="449" y="257" text-anchor="start" class="ns">CH4 噴水馬達 · CH5 滾筒 ×2</text><text x="449" y="270" text-anchor="start" class="ns">CH6 正壓閥(幾顆?) · CH7–8 空</text><rect x="440" y="294" width="200" height="36" rx="2" class="node"/><text x="449" y="309" text-anchor="start" class="nt">上滑台抱閘</text><text x="449" y="323" text-anchor="start" class="ns">失電抱閘 → 常時通電</text><rect x="440" y="340" width="200" height="36" rx="2" class="node"/><text x="449" y="355" text-anchor="start" class="nt">DM2J-RS570 + 57CM26BZ</text><text x="449" y="369" text-anchor="start" class="ns">slave 14 · 上滑台</text><text x="632" y="370" text-anchor="end" class="tag">B1</text><rect x="440" y="386" width="200" height="36" rx="2" class="node"/><text x="449" y="401" text-anchor="start" class="nt">QX-DO24 PWM 模組</text><text x="449" y="415" text-anchor="start" class="ns">slave 9 · 只用 ch1</text><text x="632" y="416" text-anchor="end" class="tag">B2</text><rect x="440" y="432" width="200" height="36" rx="2" class="node crit"/><text x="449" y="447" text-anchor="start" class="nt">FLAME 100A ESC ×2 → 螺旋槳 ×2</text><text x="449" y="461" text-anchor="start" class="ns">兩顆並接同一路 PWM</text><rect x="440" y="478" width="200" height="36" rx="2" class="node"/><text x="449" y="493" text-anchor="start" class="nt">JC-100 真空壓力 ×4</text><text x="449" y="507" text-anchor="start" class="ns">slave 5,6,7,8</text><text x="632" y="508" text-anchor="end" class="tag">B3</text><rect x="440" y="524" width="200" height="36" rx="2" class="node"/><text x="449" y="539" text-anchor="start" class="nt">XKC-Y25 液位</text><text x="449" y="553" text-anchor="start" class="ns">slave 13 · 低水位</text><text x="632" y="554" text-anchor="end" class="tag">B3</text><rect x="440" y="570" width="200" height="36" rx="2" class="node crit"/><text x="449" y="585" text-anchor="start" class="nt">Damiao M1 + M2 手臂馬達</text><text x="449" y="599" text-anchor="start" class="ns">M1 0x01 / M2 0x02 · 接 24V</text><rect x="440" y="616" width="200" height="36" rx="2" class="node"/><text x="449" y="631" text-anchor="start" class="nt">WT901 IMU</text><text x="449" y="645" text-anchor="start" class="ns">/dev/ttyUSB0 · USB 供電</text><line x1="440" y1="128.0" x2="395" y2="128.0" class="l-v24" stroke-width="2"/><circle cx="395" cy="128.0" r="3.2" class="dot d-v24"/><line x1="440" y1="174.0" x2="395" y2="174.0" class="l-v24" stroke-width="2"/><circle cx="395" cy="174.0" r="3.2" class="dot d-v24"/><line x1="440" y1="312.0" x2="395" y2="312.0" class="l-v24" stroke-width="2"/><circle cx="395" cy="312.0" r="3.2" class="dot d-v24"/><line x1="440" y1="588.0" x2="395" y2="588.0" class="l-v24" stroke-width="2"/><circle cx="395" cy="588.0" r="3.2" class="dot d-v24"/><line x1="440" y1="243" x2="395" y2="243" class="l-v24" stroke-width="2"/><circle cx="395" cy="243" r="3.2" class="dot d-v24"/><text x="434" y="238" text-anchor="end" class="lbl-r">經接點</text><line x1="440" y1="358.0" x2="285" y2="358.0" class="l-v48" stroke-width="2"/><circle cx="285" cy="358.0" r="3.2" class="dot d-v48"/><line x1="440" y1="450.0" x2="175" y2="450.0" class="l-v57" stroke-width="2"/><circle cx="175" cy="450.0" r="3.2" class="dot d-v57"/><line x1="440" y1="404.0" x2="395" y2="404.0" class="l-v24" stroke-width="2"/><circle cx="395" cy="404.0" r="3.2" class="dot d-v24"/><line x1="440" y1="496.0" x2="395" y2="496.0" class="l-v24" stroke-width="2"/><circle cx="395" cy="496.0" r="3.2" class="dot d-v24"/><line x1="440" y1="542.0" x2="395" y2="542.0" class="l-v24" stroke-width="2"/><circle cx="395" cy="542.0" r="3.2" class="dot d-v24"/><text x="434" y="638.0" text-anchor="end" class="lbl-r">電由 Pi5 USB 供</text><line x1="540" y1="192" x2="540" y2="202" class="l-bus" marker-end="url(#ah)" stroke-width="1.5"/><text x="552" y="200" text-anchor="start" class="lbl">乾接點 CH1–6</text><line x1="540" y1="422" x2="540" y2="432" class="l-pwm" marker-end="url(#ah)" stroke-width="2"/><text x="552" y="430" text-anchor="start" class="lbl-pwm">PWM ch1 一路</text><rect x="900" y="110" width="160" height="36" rx="2" class="node"/><text x="909" y="125" text-anchor="start" class="nt">2-wire tether</text><text x="909" y="139" text-anchor="start" class="ns">HomePlug AV · 頂樓來</text><rect x="900" y="156" width="160" height="36" rx="2" class="node crit"/><text x="909" y="171" text-anchor="start" class="nt">Fathom-X 載波(機身端)</text><text x="909" y="185" text-anchor="start" class="ns">吃 24V · VFD 一轉掉 90%</text><rect x="900" y="202" width="160" height="36" rx="2" class="node"/><text x="909" y="217" text-anchor="start" class="nt">5-port hub</text><text x="909" y="231" text-anchor="start" class="ns">非 PoE(機身無相機)</text><rect x="900" y="248" width="160" height="36" rx="2" class="node"/><text x="909" y="263" text-anchor="start" class="nt">USR-TCP232-304  .20</text><text x="909" y="277" text-anchor="start" class="ns">B1 動力/滑台 · 8N1</text><rect x="900" y="294" width="160" height="36" rx="2" class="node"/><text x="909" y="309" text-anchor="start" class="nt">USR-TCP232-304  .21</text><text x="909" y="323" text-anchor="start" class="ns">B2 PWM 獨佔 · 8N1</text><rect x="900" y="340" width="160" height="36" rx="2" class="node"/><text x="909" y="355" text-anchor="start" class="nt">USR-TCP232-304  .22</text><text x="909" y="369" text-anchor="start" class="ns">B3 感測 · 8N1</text><rect x="900" y="386" width="160" height="36" rx="2" class="node"/><text x="909" y="401" text-anchor="start" class="nt">Raspberry Pi 5</text><text x="909" y="415" text-anchor="start" class="ns">獨立供電(來源?)</text><line x1="980" y1="146" x2="980" y2="156" class="l-eth" marker-end="url(#ah)" stroke-width="1.5"/><line x1="980" y1="192" x2="980" y2="202" class="l-eth" marker-end="url(#ah)" stroke-width="1.5"/><line x1="710" y1="128.0" x2="710" y2="358.0" class="l-bus" stroke-width="2"/><line x1="640" y1="128.0" x2="710" y2="128.0" class="l-bus" stroke-width="2"/><circle cx="710" cy="128.0" r="3.2" class="dot d-bus"/><line x1="640" y1="174.0" x2="710" y2="174.0" class="l-bus" stroke-width="2"/><circle cx="710" cy="174.0" r="3.2" class="dot d-bus"/><line x1="640" y1="358.0" x2="710" y2="358.0" class="l-bus" stroke-width="2"/><circle cx="710" cy="358.0" r="3.2" class="dot d-bus"/><line x1="710" y1="260.0" x2="900" y2="260.0" class="l-bus" stroke-width="2"/><circle cx="710" cy="260.0" r="3.2" class="dot d-bus"/><text x="710" y="123.0" text-anchor="middle" class="lbl-b">B1 RS485</text><line x1="735" y1="306.0" x2="735" y2="404.0" class="l-bus" stroke-width="2"/><line x1="640" y1="404.0" x2="735" y2="404.0" class="l-bus" stroke-width="2"/><circle cx="735" cy="404.0" r="3.2" class="dot d-bus"/><line x1="735" y1="306.0" x2="900" y2="306.0" class="l-bus" stroke-width="2"/><circle cx="735" cy="306.0" r="3.2" class="dot d-bus"/><text x="735" y="301.0" text-anchor="middle" class="lbl-b">B2</text><line x1="760" y1="352.0" x2="760" y2="542.0" class="l-bus" stroke-width="2"/><line x1="640" y1="496.0" x2="760" y2="496.0" class="l-bus" stroke-width="2"/><circle cx="760" cy="496.0" r="3.2" class="dot d-bus"/><line x1="640" y1="542.0" x2="760" y2="542.0" class="l-bus" stroke-width="2"/><circle cx="760" cy="542.0" r="3.2" class="dot d-bus"/><line x1="760" y1="352.0" x2="900" y2="352.0" class="l-bus" stroke-width="2"/><circle cx="760" cy="352.0" r="3.2" class="dot d-bus"/><text x="760" y="347.0" text-anchor="middle" class="lbl-b">B3</text><line x1="785" y1="398.0" x2="785" y2="634.0" class="l-can" stroke-width="2"/><line x1="640" y1="588.0" x2="785" y2="588.0" class="l-can" stroke-width="2"/><circle cx="785" cy="588.0" r="3.2" class="dot d-can"/><text x="646" y="584.0" text-anchor="start" class="lbl-can">USB-CAN /dev/ttyACM0</text><line x1="640" y1="634.0" x2="785" y2="634.0" class="l-can" stroke-width="2"/><circle cx="785" cy="634.0" r="3.2" class="dot d-can"/><text x="646" y="630.0" text-anchor="start" class="lbl-can">USB(UART + 5V)</text><line x1="785" y1="398.0" x2="900" y2="398.0" class="l-can" stroke-width="2"/><circle cx="785" cy="398.0" r="3.2" class="dot d-can"/><text x="785" y="393.0" text-anchor="middle" class="lbl-b">Pi 直連</text><polyline points="395,90 860,90 860,174.0 900,174.0" class="l-v24" fill="none" stroke-width="2"/><circle cx="395" cy="90" r="3.2" class="dot d-v24"/><text x="620" y="86" text-anchor="middle" class="lbl-r">24V → 載波模組(per user)</text><line x1="880" y1="272.0" x2="900" y2="272.0" class="l-v5" stroke-width="2"/><circle cx="880" cy="272.0" r="3.2" class="dot d-v5"/><line x1="880" y1="318.0" x2="900" y2="318.0" class="l-v5" stroke-width="2"/><circle cx="880" cy="318.0" r="3.2" class="dot d-v5"/><line x1="880" y1="364.0" x2="900" y2="364.0" class="l-v5" stroke-width="2"/><circle cx="880" cy="364.0" r="3.2" class="dot d-v5"/><polyline points="1060,220.0 1105,220.0 1105,404.0" class="l-eth" fill="none" stroke-dasharray="5 3" stroke-width="1.5"/><line x1="1060" y1="266.0" x2="1105" y2="266.0" class="l-eth" stroke-dasharray="5 3" stroke-width="1.5"/><circle cx="1105" cy="266.0" r="3.2" class="dot d-eth"/><line x1="1060" y1="312.0" x2="1105" y2="312.0" class="l-eth" stroke-dasharray="5 3" stroke-width="1.5"/><circle cx="1105" cy="312.0" r="3.2" class="dot d-eth"/><line x1="1060" y1="358.0" x2="1105" y2="358.0" class="l-eth" stroke-dasharray="5 3" stroke-width="1.5"/><circle cx="1105" cy="358.0" r="3.2" class="dot d-eth"/><line x1="1060" y1="404.0" x2="1105" y2="404.0" class="l-eth" stroke-dasharray="5 3" stroke-width="1.5"/><circle cx="1105" cy="404.0" r="3.2" class="dot d-eth"/><text x="1109" y="214.0" text-anchor="start" class="lbl-b">Ethernet</text></svg>